# xmcd
#
# Track frame offsets:
#	150
#	27340
#	58112
#	78922
#	100307
#	124275
#	144550
#	165317
#	191792
#	227242
#	253367
#	277892
#
# Disc length: 3966 seconds
#
# Revision: 0
# Processed by: cddbd v1.4b42PL1 Copyright (c) Steve Scherf et al.
# Submitted via: EasyCDDAExtractor 4.5.0.2
#
DISCID=aa0f7c0c
DTITLE=Ingrid Lucia and the Flying Neutrinos - I'd Rather Be In New Orleans
DYEAR=1994
DGENRE=Blues
TTITLE0=Delta Bound
TTITLE1=Barbarin's Second Line
TTITLE2=Streetlight
TTITLE3=The Passion Song
TTITLE4=Swimming Pool Blue
TTITLE5=Marie Laveau
TTITLE6=Bei Mir Bist Du Schon
TTITLE7=I Want a Little Girl
TTITLE8=New Dog Blues
TTITLE9=Alone In This House
TTITLE10=I'm in a Hole
TTITLE11=I'd Rather Be In New Orleans
EXTD=
EXTT0=
EXTT1=
EXTT2=
EXTT3=
EXTT4=
EXTT5=
EXTT6=
EXTT7=
EXTT8=
EXTT9=
EXTT10=
EXTT11=
PLAYORDER=
